<svg width="37" height="23" viewBox="0 0 37 23" fill="none" xmlns="http://www.w3.org/2000/svg">
<path d="M32.2083 17.5417L4.79167 17.5417C2.63162 17.5417 0.875 18.6255 0.875 19.9583C0.875 21.2911 2.63162 22.375 4.79167 22.375L32.2083 22.375C34.3684 22.375 36.125 21.2911 36.125 19.9583C36.125 18.6255 34.3684 17.5417 32.2083 17.5417ZM32.2083 9.08333L4.79167 9.08333C2.63162 9.08333 0.875 10.1672 0.875 11.5C0.875 12.8328 2.63162 13.9167 4.79167 13.9167L32.2083 13.9167C34.3684 13.9167 36.125 12.8328 36.125 11.5C36.125 10.1672 34.3684 9.08333 32.2083 9.08333ZM32.2083 0.625L4.79167 0.625C2.63162 0.625 0.875 1.70887 0.875 3.04167C0.875 4.37446 2.63162 5.45833 4.79167 5.45833L32.2083 5.45833C34.3684 5.45833 36.125 4.37446 36.125 3.04167C36.125 1.70887 34.3684 0.625 32.2083 0.625Z" fill="#FF3E9B"/>
</svg>
